<?xml version="1.0" standalone="no"?>
<!DOCTYPE svg PUBLIC "-//W3C//DTD SVG 20010904//EN"
 "http://www.w3.org/TR/2001/REC-SVG-20010904/DTD/svg10.dtd">
<svg version="1.0" xmlns="http://www.w3.org/2000/svg"
 width="339.000000pt" height="385.000000pt" viewBox="0 0 339.000000 385.000000"
 preserveAspectRatio="xMidYMid meet">

<g transform="translate(0.000000,385.000000) scale(0.100000,-0.100000)"
fill="#5EEAD4" stroke="none">
<path d="M0 1925 l0 -1925 1695 0 1695 0 0 1925 0 1925 -1695 0 -1695 0 0
-1925z m3208 -2 l-3 -1738 -1510 0 -1510 0 -3 1738 -2 1737 1515 0 1515 0 -2
-1737z"/>
<path d="M670 1760 l0 -540 90 0 90 0 0 125 0 124 54 58 c30 32 56 56 59 53 2
-3 48 -77 102 -165 54 -88 104 -168 113 -177 12 -15 32 -18 110 -18 76 0 93 3
89 14 -3 7 -71 116 -151 240 l-146 226 140 180 140 180 -99 0 -98 0 -148 -195
c-81 -107 -151 -198 -156 -201 -5 -3 -9 133 -9 315 l0 321 -90 0 -90 0 0 -540z"/>
<path d="M1597 2213 c-2 -5 -15 -47 -27 -95 l-23 -88 -54 0 -53 0 0 -59 0 -59
50 -12 50 -12 0 -236 c1 -252 7 -306 45 -363 45 -68 160 -96 268 -65 62 18 66
27 51 103 -6 29 -8 30 -41 22 -54 -12 -104 9 -126 51 -15 31 -17 62 -15 265
l3 230 93 3 92 3 0 64 0 65 -95 0 -95 0 0 95 0 95 -59 0 c-33 0 -62 -3 -64 -7z"/>
<path d="M2052 1738 c3 -316 4 -324 27 -376 30 -66 96 -126 156 -141 95 -24
198 -5 273 49 l42 30 6 -28 c3 -15 7 -33 10 -39 2 -9 27 -13 79 -13 l75 0 0
420 0 420 -90 0 -90 0 0 -315 c0 -313 0 -314 -22 -336 -33 -31 -97 -59 -138
-59 -44 0 -98 27 -124 63 -20 27 -21 43 -24 338 l-3 309 -90 0 -90 0 3 -322z"/>
<path d="M623 689 c-60 -17 -84 -110 -42 -163 19 -24 27 -27 73 -25 l51 3 -2
-34 c-1 -18 -7 -37 -15 -41 -21 -14 -55 -10 -73 7 -8 9 -22 13 -30 10 -43 -16
15 -76 74 -76 74 0 111 55 111 165 0 72 -18 128 -47 143 -32 16 -67 20 -100
11z m72 -94 c0 -38 -2 -40 -32 -43 -27 -3 -33 1 -39 21 -9 38 12 69 44 65 24
-3 27 -7 27 -43z"/>
<path d="M883 688 c-29 -7 -73 -49 -73 -69 0 -4 9 -11 21 -14 15 -5 25 -1 36
15 21 30 77 25 81 -9 3 -18 -11 -38 -57 -85 -58 -60 -81 -97 -81 -137 0 -17 8
-19 100 -19 l100 0 0 25 c0 24 -2 25 -65 25 -36 0 -65 3 -65 6 0 16 23 44 59
68 42 29 71 78 71 119 0 54 -64 92 -127 75z"/>
<path d="M1122 688 c-21 -6 -40 -21 -52 -41 -20 -32 -20 -32 0 -41 16 -7 24
-5 36 13 24 33 78 26 82 -11 3 -21 -8 -37 -54 -80 -56 -53 -84 -98 -84 -138 0
-19 6 -20 100 -20 l100 0 0 25 c0 24 -3 25 -59 25 -33 0 -62 4 -66 9 -3 5 18
29 46 53 57 49 79 84 79 126 0 59 -62 98 -128 80z"/>
<path d="M450 665 c-6 -17 -20 -27 -40 -31 -42 -9 -42 -44 0 -44 l29 0 3 -107
3 -108 28 -3 27 -3 0 160 c0 155 -1 161 -20 161 -13 0 -24 -10 -30 -25z"/>
</g>
</svg>
